<svg width="335" height="190" viewBox="0 0 335 190" fill="none" xmlns="http://www.w3.org/2000/svg">
<g filter="url(#filter0_d_29_746)">
<g filter="url(#filter1_d_29_746)">
<rect x="4" width="327" height="182" rx="8" fill="url(#paint0_linear_29_746)" shape-rendering="crispEdges"/>
</g>
<g clip-path="url(#clip0_29_746)">
<path d="M36.8361 16.0928L35.9596 30.0791L31.6151 30.2696L31.6532 22.8954L29.6905 28.8405H28.0137L26.5084 23.5242L26.4893 29.698L22.0876 29.8313L22.2782 16.6644L27.1753 16.4739L29.1189 22.781L31.7104 16.0928H36.8361ZM48.6311 26.592C48.6311 27.1192 48.5326 27.5733 48.3357 27.9544C48.1452 28.3355 47.888 28.6595 47.564 28.9262C47.2401 29.193 46.8653 29.4121 46.4398 29.5836C46.0206 29.7488 45.5823 29.879 45.125 29.9742C44.6677 30.0695 44.2072 30.133 43.7435 30.1648C43.2862 30.1966 42.8575 30.2124 42.4573 30.2124C42.0635 30.2124 41.6538 30.1966 41.2283 30.1648C40.8091 30.1394 40.3898 30.0917 39.9707 30.0219C39.5514 29.952 39.1386 29.8599 38.7321 29.7456C38.3256 29.6249 37.9413 29.4756 37.5792 29.2978L37.5602 17.0265C37.9159 16.8804 38.2938 16.7502 38.694 16.6358C39.0941 16.5152 39.5006 16.4167 39.9135 16.3405C40.3327 16.2579 40.7487 16.1976 41.1616 16.1595C41.5744 16.115 41.9746 16.0928 42.362 16.0928C42.813 16.0928 43.2671 16.1214 43.7244 16.1785C44.1881 16.2357 44.6327 16.331 45.0583 16.4643C45.4839 16.5977 45.8808 16.7724 46.2492 16.9884C46.6176 17.198 46.9384 17.4584 47.2115 17.7696C47.491 18.0808 47.7069 18.4429 47.8594 18.8557C48.0182 19.2686 48.0976 19.7449 48.0976 20.2849C48.0976 20.6405 48.0468 20.974 47.9451 21.2852C47.8435 21.5965 47.6974 21.8759 47.5069 22.1236C47.3163 22.3714 47.0845 22.5841 46.8113 22.762C46.5382 22.9335 46.2302 23.0605 45.8872 23.1431C46.3001 23.2511 46.6748 23.4099 47.0114 23.6195C47.3544 23.829 47.6434 24.0831 47.8784 24.3816C48.1198 24.6802 48.304 25.0168 48.431 25.3916C48.5644 25.7663 48.6311 26.1664 48.6311 26.592ZM43.7911 21.1614C43.7911 20.9772 43.753 20.8216 43.6768 20.6945C43.6006 20.5611 43.5053 20.4532 43.391 20.3706C43.283 20.288 43.1623 20.2277 43.029 20.1896C42.9019 20.1515 42.7876 20.1324 42.686 20.1324C42.559 20.1324 42.4351 20.1515 42.3144 20.1896C42.1937 20.2277 42.0762 20.2721 41.9619 20.323L41.9047 22.4381C42.0508 22.4381 42.2318 22.4253 42.4478 22.3999C42.6637 22.3745 42.8702 22.3205 43.0671 22.238C43.2703 22.149 43.4418 22.022 43.5816 21.8569C43.7213 21.6854 43.7911 21.4535 43.7911 21.1614ZM42.4383 24.2673C42.254 24.2673 42.0762 24.2864 41.9047 24.3245L41.8666 26.4967C41.9619 26.5158 42.054 26.5348 42.1429 26.5539C42.2382 26.5666 42.3303 26.5729 42.4192 26.5729C42.5526 26.5729 42.6987 26.5603 42.8575 26.5348C43.0163 26.5031 43.1655 26.4459 43.3053 26.3634C43.445 26.2744 43.5593 26.1569 43.6483 26.0108C43.7435 25.8648 43.7911 25.671 43.7911 25.4297C43.7911 25.1883 43.7435 24.9914 43.6483 24.839C43.5593 24.6865 43.4482 24.569 43.3148 24.4864C43.1814 24.3975 43.0353 24.3404 42.8765 24.315C42.7177 24.2832 42.5716 24.2673 42.4383 24.2673Z" fill="#EBC733"/>
<path d="M57.4189 30.1398C56.576 30.1398 55.8267 29.9629 55.1711 29.6091C54.5259 29.2449 54.0161 28.7506 53.6414 28.1262C53.2772 27.5018 53.0951 26.7837 53.0951 25.972C53.0951 25.3268 53.1992 24.7389 53.4073 24.2081C53.6154 23.6774 53.9016 23.2195 54.2658 22.8345C54.6404 22.439 55.0826 22.1372 55.5926 21.9291C56.1129 21.7106 56.6748 21.6013 57.2784 21.6013C57.8091 21.6013 58.3035 21.7054 58.7613 21.9135C59.2192 22.1112 59.6147 22.387 59.9477 22.7408C60.2911 23.0946 60.5513 23.5161 60.7282 24.0052C60.9155 24.4839 61.0039 25.0094 60.9935 25.5818L60.9779 26.2686H54.2814L53.9224 24.9886H59.5887L59.3545 25.254V24.8793C59.3233 24.5359 59.2088 24.2289 59.0111 23.9584C58.8134 23.6878 58.5636 23.4745 58.2618 23.3184C57.96 23.1623 57.6322 23.0842 57.2784 23.0842C56.7165 23.0842 56.243 23.1935 55.8579 23.412C55.4729 23.6202 55.1815 23.9323 54.9838 24.3486C54.7861 24.7545 54.6872 25.2592 54.6872 25.8628C54.6872 26.4351 54.8069 26.9346 55.0462 27.3613C55.2856 27.7775 55.6238 28.1002 56.0608 28.3291C56.4979 28.558 57.0026 28.6725 57.575 28.6725C57.9808 28.6725 58.3555 28.6049 58.6989 28.4696C59.0527 28.3343 59.4326 28.0897 59.8384 27.7359L60.6501 28.8754C60.4004 29.1252 60.0934 29.3437 59.7291 29.531C59.3753 29.7184 58.9955 29.8693 58.5896 29.9837C58.1942 30.0878 57.8039 30.1398 57.4189 30.1398ZM65.2735 29.9837L61.8082 21.7886H63.5408L66.0384 27.9232L65.7418 28.0637L68.4111 21.7886H70.0657L66.4287 29.9837H65.2735ZM75.1324 30.1398C74.2895 30.1398 73.5402 29.9629 72.8846 29.6091C72.2394 29.2449 71.7295 28.7506 71.3548 28.1262C70.9906 27.5018 70.8085 26.7837 70.8085 25.972C70.8085 25.3268 70.9126 24.7389 71.1207 24.2081C71.3288 23.6774 71.615 23.2195 71.9792 22.8345C72.3539 22.439 72.7961 22.1372 73.3061 21.9291C73.8264 21.7106 74.3883 21.6013 74.9919 21.6013C75.5226 21.6013 76.0169 21.7054 76.4748 21.9135C76.9327 22.1112 77.3282 22.387 77.6612 22.7408C78.0046 23.0946 78.2648 23.5161 78.4417 24.0052C78.629 24.4839 78.7174 25.0094 78.707 25.5818L78.6914 26.2686H71.9948L71.6358 24.9886H77.3022L77.068 25.254V24.8793C77.0368 24.5359 76.9223 24.2289 76.7246 23.9584C76.5269 23.6878 76.2771 23.4745 75.9753 23.3184C75.6735 23.1623 75.3457 23.0842 74.9919 23.0842C74.43 23.0842 73.9565 23.1935 73.5714 23.412C73.1864 23.6202 72.895 23.9323 72.6973 24.3486C72.4995 24.7545 72.4007 25.2592 72.4007 25.8628C72.4007 26.4351 72.5204 26.9346 72.7597 27.3613C72.9991 27.7775 73.3373 28.1002 73.7743 28.3291C74.2114 28.558 74.7161 28.6725 75.2885 28.6725C75.6943 28.6725 76.069 28.6049 76.4124 28.4696C76.7662 28.3343 77.1461 28.0897 77.5519 27.7359L78.3636 28.8754C78.1139 29.1252 77.8069 29.3437 77.4426 29.531C77.0888 29.7184 76.709 29.8693 76.3031 29.9837C75.9077 30.0878 75.5174 30.1398 75.1324 30.1398ZM80.4543 29.9837V21.7886H82.0621V23.4745L81.7812 23.6618C81.8852 23.2975 82.0882 22.9645 82.39 22.6628C82.6917 22.3506 83.0508 22.1008 83.467 21.9135C83.8833 21.7158 84.31 21.6169 84.747 21.6169C85.3714 21.6169 85.8917 21.7418 86.308 21.9915C86.7243 22.2309 87.0365 22.6003 87.2446 23.0998C87.4527 23.5993 87.5568 24.2289 87.5568 24.9886V29.9837H85.949V25.0979C85.949 24.6296 85.8865 24.2445 85.7617 23.9428C85.6368 23.6306 85.4443 23.4068 85.1841 23.2715C84.9239 23.1258 84.6013 23.0634 84.2163 23.0842C83.9041 23.0842 83.6179 23.1362 83.3578 23.2403C83.0976 23.334 82.8687 23.4693 82.6709 23.6462C82.4836 23.8231 82.3327 24.0312 82.2183 24.2706C82.1142 24.4995 82.0621 24.7493 82.0621 25.0198V29.9837H81.2661C81.1308 29.9837 80.9955 29.9837 80.8602 29.9837C80.7249 29.9837 80.5896 29.9837 80.4543 29.9837ZM90.7526 29.9837V19.6969H92.3604V29.9837H90.7526ZM89.0511 23.3496V21.7886H94.2648V23.3496H89.0511ZM98.7652 30.1398C98.0784 30.1398 97.4592 30.0202 96.9077 29.7808C96.3561 29.5415 95.8982 29.1876 95.534 28.7193L96.6267 27.7828C96.9389 28.147 97.2771 28.4123 97.6413 28.5789C98.016 28.7349 98.4374 28.813 98.9057 28.813C99.093 28.813 99.2648 28.7922 99.4208 28.7506C99.5874 28.6985 99.7278 28.6257 99.8423 28.532C99.9672 28.4384 100.061 28.3291 100.123 28.2042C100.186 28.0689 100.217 27.9232 100.217 27.7671C100.217 27.4966 100.118 27.278 99.9204 27.1115C99.8163 27.0387 99.6498 26.9606 99.4208 26.8774C99.2023 26.7837 98.9161 26.6901 98.5623 26.5964C97.9587 26.4403 97.4644 26.2634 97.0794 26.0657C96.6944 25.868 96.3978 25.6442 96.1896 25.3945C96.0335 25.1967 95.9191 24.9834 95.8462 24.7545C95.7734 24.5151 95.7369 24.2549 95.7369 23.974C95.7369 23.6306 95.8098 23.3184 95.9555 23.0374C96.1116 22.746 96.3197 22.4962 96.5799 22.2881C96.8504 22.0696 97.1626 21.9031 97.5165 21.7886C97.8807 21.6741 98.2657 21.6169 98.6716 21.6169C99.0566 21.6169 99.4365 21.6689 99.8111 21.773C100.196 21.8771 100.55 22.028 100.873 22.2257C101.195 22.4234 101.466 22.6575 101.684 22.9281L100.763 23.9428C100.566 23.745 100.347 23.5733 100.108 23.4276C99.8787 23.2715 99.6446 23.1519 99.4052 23.0686C99.1659 22.9854 98.9474 22.9437 98.7496 22.9437C98.5311 22.9437 98.3334 22.9645 98.1565 23.0062C97.9795 23.0478 97.8287 23.1102 97.7038 23.1935C97.5893 23.2767 97.5009 23.3808 97.4384 23.5057C97.376 23.6306 97.3447 23.771 97.3447 23.9271C97.3552 24.0624 97.3864 24.1925 97.4384 24.3174C97.5009 24.4319 97.5841 24.5307 97.6882 24.614C97.8026 24.6972 97.9743 24.7857 98.2033 24.8793C98.4322 24.973 98.7236 25.0615 99.0774 25.1447C99.5978 25.28 100.024 25.4309 100.357 25.5974C100.701 25.7535 100.971 25.9356 101.169 26.1437C101.377 26.3415 101.523 26.5704 101.606 26.8306C101.689 27.0907 101.731 27.3821 101.731 27.7047C101.731 28.173 101.596 28.5945 101.325 28.9691C101.065 29.3333 100.711 29.6195 100.264 29.8276C99.8163 30.0358 99.3168 30.1398 98.7652 30.1398Z" fill="white"/>
</g>
<path d="M283.805 106.113H284.973C284.949 106.496 284.844 106.836 284.656 107.133C284.471 107.43 284.212 107.661 283.879 107.828C283.548 107.995 283.15 108.078 282.684 108.078C282.319 108.078 281.992 108.016 281.703 107.891C281.414 107.763 281.167 107.581 280.961 107.344C280.758 107.107 280.603 106.82 280.496 106.484C280.389 106.148 280.336 105.772 280.336 105.355V104.961C280.336 104.544 280.391 104.168 280.5 103.832C280.612 103.493 280.771 103.206 280.977 102.969C281.185 102.732 281.434 102.549 281.723 102.422C282.012 102.294 282.335 102.23 282.691 102.23C283.165 102.23 283.565 102.316 283.891 102.488C284.219 102.66 284.473 102.897 284.652 103.199C284.835 103.501 284.944 103.845 284.98 104.23H283.809C283.796 104.001 283.75 103.807 283.672 103.648C283.594 103.487 283.475 103.366 283.316 103.285C283.16 103.202 282.952 103.16 282.691 103.16C282.496 103.16 282.326 103.197 282.18 103.27C282.034 103.342 281.911 103.453 281.812 103.602C281.714 103.75 281.639 103.938 281.59 104.164C281.543 104.388 281.52 104.651 281.52 104.953V105.355C281.52 105.65 281.542 105.909 281.586 106.133C281.63 106.354 281.698 106.542 281.789 106.695C281.883 106.846 282.003 106.961 282.148 107.039C282.297 107.115 282.475 107.152 282.684 107.152C282.928 107.152 283.13 107.113 283.289 107.035C283.448 106.957 283.569 106.841 283.652 106.688C283.738 106.534 283.789 106.342 283.805 106.113ZM287.793 106.812L289.133 102.312H290.438L288.457 108H287.598L287.793 106.812ZM286.559 102.312L287.895 106.812L288.098 108H287.23L285.262 102.312H286.559Z" fill="#F5F5F5"/>
<rect x="4" y="138" width="327" height="24" fill="url(#paint1_linear_29_746)"/>
<rect x="280" y="112" width="32" height="16" rx="4" fill="white"/>
</g>
<defs>
<filter id="filter0_d_29_746" x="0" y="0" width="335" height="190" filterUnits="userSpaceOnUse" color-interpolation-filters="sRGB">
<feFlood flood-opacity="0" result="BackgroundImageFix"/>
<feColorMatrix in="SourceAlpha" type="matrix" values="0 0 0 0 0 0 0 0 0 0 0 0 0 0 0 0 0 0 127 0" result="hardAlpha"/>
<feOffset dy="4"/>
<feGaussianBlur stdDeviation="2"/>
<feComposite in2="hardAlpha" operator="out"/>
<feColorMatrix type="matrix" values="0 0 0 0 0 0 0 0 0 0 0 0 0 0 0 0 0 0 0.25 0"/>
<feBlend mode="normal" in2="BackgroundImageFix" result="effect1_dropShadow_29_746"/>
<feBlend mode="normal" in="SourceGraphic" in2="effect1_dropShadow_29_746" result="shape"/>
</filter>
<filter id="filter1_d_29_746" x="0" y="0" width="335" height="190" filterUnits="userSpaceOnUse" color-interpolation-filters="sRGB">
<feFlood flood-opacity="0" result="BackgroundImageFix"/>
<feColorMatrix in="SourceAlpha" type="matrix" values="0 0 0 0 0 0 0 0 0 0 0 0 0 0 0 0 0 0 127 0" result="hardAlpha"/>
<feOffset dy="4"/>
<feGaussianBlur stdDeviation="2"/>
<feComposite in2="hardAlpha" operator="out"/>
<feColorMatrix type="matrix" values="0 0 0 0 0 0 0 0 0 0 0 0 0 0 0 0 0 0 0.15 0"/>
<feBlend mode="normal" in2="BackgroundImageFix" result="effect1_dropShadow_29_746"/>
<feBlend mode="normal" in="SourceGraphic" in2="effect1_dropShadow_29_746" result="shape"/>
</filter>
<linearGradient id="paint0_linear_29_746" x1="167.5" y1="0" x2="167.5" y2="182" gradientUnits="userSpaceOnUse">
<stop stop-color="#564581"/>
<stop offset="1" stop-color="#9C8EC1" stop-opacity="0.8"/>
</linearGradient>
<linearGradient id="paint1_linear_29_746" x1="4" y1="150" x2="331" y2="150" gradientUnits="userSpaceOnUse">
<stop offset="0.266241"/>
<stop offset="0.323612" stop-opacity="0"/>
<stop offset="0.374427"/>
</linearGradient>
<clipPath id="clip0_29_746">
<rect width="80" height="14.3089" fill="white" transform="translate(22 16)"/>
</clipPath>
</defs>
</svg>
