<svg width="80" height="80" viewBox="0 0 80 80" fill="none" xmlns="http://www.w3.org/2000/svg">
<path d="M80 0H0V80H80V0Z" fill="white"/>
<path d="M8.18981 5.42371H5.42371V8.18981H8.18981V5.42371Z" fill="black"/>
<path d="M10.9559 5.42371H8.18981V8.18981H10.9559V5.42371Z" fill="black"/>
<path d="M13.722 5.42371H10.9559V8.18981H13.722V5.42371Z" fill="black"/>
<path d="M16.4881 5.42371H13.722V8.18981H16.4881V5.42371Z" fill="black"/>
<path d="M19.2542 5.42371H16.4881V8.18981H19.2542V5.42371Z" fill="black"/>
<path d="M22.0203 5.42371H19.2542V8.18981H22.0203V5.42371Z" fill="black"/>
<path d="M24.7864 5.42371H22.0203V8.18981H24.7864V5.42371Z" fill="black"/>
<path d="M30.3186 5.42371H27.5525V8.18981H30.3186V5.42371Z" fill="black"/>
<path d="M33.0847 5.42371H30.3186V8.18981H33.0847V5.42371Z" fill="black"/>
<path d="M35.8508 5.42371H33.0847V8.18981H35.8508V5.42371Z" fill="black"/>
<path d="M38.6169 5.42371H35.8508V8.18981H38.6169V5.42371Z" fill="black"/>
<path d="M41.383 5.42371H38.6169V8.18981H41.383V5.42371Z" fill="black"/>
<path d="M49.6813 5.42371H46.9152V8.18981H49.6813V5.42371Z" fill="black"/>
<path d="M57.9796 5.42371H55.2135V8.18981H57.9796V5.42371Z" fill="black"/>
<path d="M60.7457 5.42371H57.9796V8.18981H60.7457V5.42371Z" fill="black"/>
<path d="M63.5118 5.42371H60.7457V8.18981H63.5118V5.42371Z" fill="black"/>
<path d="M66.2779 5.42371H63.5118V8.18981H66.2779V5.42371Z" fill="black"/>
<path d="M69.044 5.42371H66.2779V8.18981H69.044V5.42371Z" fill="black"/>
<path d="M71.8101 5.42371H69.044V8.18981H71.8101V5.42371Z" fill="black"/>
<path d="M74.5762 5.42371H71.8101V8.18981H74.5762V5.42371Z" fill="black"/>
<path d="M8.18981 8.18981H5.42371V10.9559H8.18981V8.18981Z" fill="black"/>
<path d="M24.7864 8.18981H22.0203L22.0203 10.9559H24.7864V8.18981Z" fill="black"/>
<path d="M35.8508 8.18981H33.0847V10.9559H35.8508V8.18981Z" fill="black"/>
<path d="M38.6169 8.18981H35.8508V10.9559H38.6169V8.18981Z" fill="black"/>
<path d="M41.383 8.18981H38.6169V10.9559H41.383V8.18981Z" fill="black"/>
<path d="M44.1491 8.18981H41.383V10.9559H44.1491V8.18981Z" fill="black"/>
<path d="M46.9152 8.18981H44.1491V10.9559H46.9152L46.9152 8.18981Z" fill="black"/>
<path d="M57.9796 8.18981H55.2135V10.9559H57.9796V8.18981Z" fill="black"/>
<path d="M74.5762 8.18981H71.8101V10.9559H74.5762V8.18981Z" fill="black"/>
<path d="M8.18981 10.9559H5.42371V13.722H8.18981V10.9559Z" fill="black"/>
<path d="M13.722 10.9559H10.9559V13.722H13.722V10.9559Z" fill="black"/>
<path d="M16.4881 10.9559H13.722V13.722H16.4881V10.9559Z" fill="black"/>
<path d="M19.2542 10.9559H16.4881V13.722H19.2542V10.9559Z" fill="black"/>
<path d="M24.7864 10.9559H22.0203V13.722H24.7864V10.9559Z" fill="black"/>
<path d="M30.3186 10.9559H27.5525V13.722H30.3186V10.9559Z" fill="black"/>
<path d="M33.0847 10.9559H30.3186V13.722H33.0847V10.9559Z" fill="black"/>
<path d="M38.6169 10.9559H35.8508V13.722H38.6169V10.9559Z" fill="black"/>
<path d="M41.383 10.9559H38.6169V13.722H41.383V10.9559Z" fill="black"/>
<path d="M46.9152 10.9559H44.1491V13.722H46.9152V10.9559Z" fill="black"/>
<path d="M57.9796 10.9559H55.2135V13.722H57.9796V10.9559Z" fill="black"/>
<path d="M63.5118 10.9559H60.7457V13.722H63.5118V10.9559Z" fill="black"/>
<path d="M66.2779 10.9559H63.5118V13.722H66.2779V10.9559Z" fill="black"/>
<path d="M69.044 10.9559H66.2779V13.722H69.044V10.9559Z" fill="black"/>
<path d="M74.5762 10.9559H71.8101V13.722H74.5762V10.9559Z" fill="black"/>
<path d="M8.18981 13.722H5.42371V16.4881H8.18981V13.722Z" fill="black"/>
<path d="M13.722 13.722H10.9559V16.4881H13.722V13.722Z" fill="black"/>
<path d="M16.4881 13.722H13.722V16.4881H16.4881V13.722Z" fill="black"/>
<path d="M19.2542 13.722H16.4881V16.4881H19.2542V13.722Z" fill="black"/>
<path d="M24.7864 13.722H22.0203V16.4881H24.7864V13.722Z" fill="black"/>
<path d="M30.3186 13.722H27.5525V16.4881H30.3186V13.722Z" fill="black"/>
<path d="M33.0847 13.722H30.3186V16.4881H33.0847V13.722Z" fill="black"/>
<path d="M35.8508 13.722H33.0847V16.4881H35.8508V13.722Z" fill="black"/>
<path d="M44.1491 13.722H41.383V16.4881H44.1491V13.722Z" fill="black"/>
<path d="M49.6813 13.722H46.9152L46.9152 16.4881H49.6813V13.722Z" fill="black"/>
<path d="M52.4474 13.722H49.6813V16.4881H52.4474V13.722Z" fill="black"/>
<path d="M57.9796 13.722H55.2135V16.4881H57.9796V13.722Z" fill="black"/>
<path d="M63.5118 13.722H60.7457V16.4881H63.5118V13.722Z" fill="black"/>
<path d="M66.2779 13.722H63.5118V16.4881H66.2779V13.722Z" fill="black"/>
<path d="M69.044 13.722H66.2779V16.4881H69.044V13.722Z" fill="black"/>
<path d="M74.5762 13.722H71.8101V16.4881H74.5762V13.722Z" fill="black"/>
<path d="M8.18981 16.4881H5.42371V19.2542H8.18981V16.4881Z" fill="black"/>
<path d="M13.722 16.4881H10.9559V19.2542H13.722V16.4881Z" fill="black"/>
<path d="M16.4881 16.4881H13.722V19.2542H16.4881V16.4881Z" fill="black"/>
<path d="M19.2542 16.4881H16.4881V19.2542H19.2542V16.4881Z" fill="black"/>
<path d="M24.7864 16.4881H22.0203V19.2542H24.7864V16.4881Z" fill="black"/>
<path d="M38.6169 16.4881H35.8508V19.2542H38.6169V16.4881Z" fill="black"/>
<path d="M46.9152 16.4881H44.1491V19.2542H46.9152L46.9152 16.4881Z" fill="black"/>
<path d="M57.9796 16.4881H55.2135V19.2542H57.9796V16.4881Z" fill="black"/>
<path d="M63.5118 16.4881H60.7457V19.2542H63.5118V16.4881Z" fill="black"/>
<path d="M66.2779 16.4881H63.5118V19.2542H66.2779V16.4881Z" fill="black"/>
<path d="M69.044 16.4881H66.2779V19.2542H69.044V16.4881Z" fill="black"/>
<path d="M74.5762 16.4881H71.8101V19.2542H74.5762V16.4881Z" fill="black"/>
<path d="M8.18981 19.2542H5.42371V22.0203H8.18981V19.2542Z" fill="black"/>
<path d="M24.7864 19.2542H22.0203V22.0203H24.7864V19.2542Z" fill="black"/>
<path d="M30.3186 19.2542H27.5525V22.0203H30.3186V19.2542Z" fill="black"/>
<path d="M35.8508 19.2542H33.0847V22.0203H35.8508V19.2542Z" fill="black"/>
<path d="M49.6813 19.2542H46.9152L46.9152 22.0203H49.6813V19.2542Z" fill="black"/>
<path d="M52.4474 19.2542H49.6813V22.0203H52.4474V19.2542Z" fill="black"/>
<path d="M57.9796 19.2542H55.2135V22.0203H57.9796V19.2542Z" fill="black"/>
<path d="M74.5762 19.2542H71.8101V22.0203H74.5762V19.2542Z" fill="black"/>
<path d="M8.18981 22.0203H5.42371V24.7864H8.18981V22.0203Z" fill="black"/>
<path d="M10.9559 22.0203L8.18981 22.0203V24.7864H10.9559V22.0203Z" fill="black"/>
<path d="M13.722 22.0203H10.9559V24.7864H13.722V22.0203Z" fill="black"/>
<path d="M16.4881 22.0203H13.722V24.7864H16.4881V22.0203Z" fill="black"/>
<path d="M19.2542 22.0203H16.4881V24.7864H19.2542V22.0203Z" fill="black"/>
<path d="M22.0203 22.0203L19.2542 22.0203V24.7864H22.0203L22.0203 22.0203Z" fill="black"/>
<path d="M24.7864 22.0203H22.0203L22.0203 24.7864H24.7864V22.0203Z" fill="black"/>
<path d="M30.3186 22.0203H27.5525V24.7864H30.3186V22.0203Z" fill="black"/>
<path d="M35.8508 22.0203H33.0847V24.7864H35.8508V22.0203Z" fill="black"/>
<path d="M41.383 22.0203H38.6169V24.7864H41.383V22.0203Z" fill="black"/>
<path d="M46.9152 22.0203L44.1491 22.0203V24.7864H46.9152L46.9152 22.0203Z" fill="black"/>
<path d="M52.4474 22.0203H49.6813V24.7864H52.4474V22.0203Z" fill="black"/>
<path d="M57.9796 22.0203H55.2135V24.7864H57.9796V22.0203Z" fill="black"/>
<path d="M60.7457 22.0203L57.9796 22.0203V24.7864H60.7457V22.0203Z" fill="black"/>
<path d="M63.5118 22.0203H60.7457V24.7864H63.5118V22.0203Z" fill="black"/>
<path d="M66.2779 22.0203H63.5118V24.7864H66.2779V22.0203Z" fill="black"/>
<path d="M69.044 22.0203H66.2779V24.7864H69.044V22.0203Z" fill="black"/>
<path d="M71.8101 22.0203L69.044 22.0203V24.7864H71.8101V22.0203Z" fill="black"/>
<path d="M74.5762 22.0203H71.8101V24.7864H74.5762V22.0203Z" fill="black"/>
<path d="M30.3186 24.7864H27.5525V27.5525H30.3186V24.7864Z" fill="black"/>
<path d="M35.8508 24.7864H33.0847V27.5525H35.8508V24.7864Z" fill="black"/>
<path d="M41.383 24.7864H38.6169V27.5525H41.383V24.7864Z" fill="black"/>
<path d="M44.1491 24.7864H41.383V27.5525H44.1491V24.7864Z" fill="black"/>
<path d="M49.6813 24.7864H46.9152L46.9152 27.5525H49.6813V24.7864Z" fill="black"/>
<path d="M8.18981 27.5525H5.42371V30.3186H8.18981V27.5525Z" fill="black"/>
<path d="M10.9559 27.5525H8.18981V30.3186H10.9559V27.5525Z" fill="black"/>
<path d="M16.4881 27.5525H13.722V30.3186H16.4881V27.5525Z" fill="black"/>
<path d="M24.7864 27.5525H22.0203V30.3186H24.7864V27.5525Z" fill="black"/>
<path d="M27.5525 27.5525H24.7864V30.3186H27.5525V27.5525Z" fill="black"/>
<path d="M33.0847 27.5525H30.3186V30.3186H33.0847V27.5525Z" fill="black"/>
<path d="M44.1491 27.5525H41.383V30.3186H44.1491V27.5525Z" fill="black"/>
<path d="M46.9152 27.5525H44.1491V30.3186H46.9152L46.9152 27.5525Z" fill="black"/>
<path d="M49.6813 27.5525H46.9152L46.9152 30.3186H49.6813V27.5525Z" fill="black"/>
<path d="M52.4474 27.5525H49.6813V30.3186H52.4474V27.5525Z" fill="black"/>
<path d="M55.2135 27.5525H52.4474V30.3186H55.2135V27.5525Z" fill="black"/>
<path d="M57.9796 27.5525H55.2135V30.3186H57.9796V27.5525Z" fill="black"/>
<path d="M60.7457 27.5525H57.9796V30.3186H60.7457V27.5525Z" fill="black"/>
<path d="M66.2779 27.5525H63.5118V30.3186H66.2779V27.5525Z" fill="black"/>
<path d="M69.044 27.5525H66.2779V30.3186H69.044V27.5525Z" fill="black"/>
<path d="M74.5762 27.5525H71.8101V30.3186H74.5762V27.5525Z" fill="black"/>
<path d="M10.9559 30.3186H8.18981V33.0847H10.9559V30.3186Z" fill="black"/>
<path d="M13.722 30.3186H10.9559V33.0847H13.722V30.3186Z" fill="black"/>
<path d="M22.0203 30.3186H19.2542V33.0847H22.0203L22.0203 30.3186Z" fill="black"/>
<path d="M30.3186 30.3186H27.5525V33.0847H30.3186V30.3186Z" fill="black"/>
<path d="M38.6169 30.3186H35.8508V33.0847H38.6169V30.3186Z" fill="black"/>
<path d="M41.383 30.3186H38.6169V33.0847H41.383V30.3186Z" fill="black"/>
<path d="M49.6813 30.3186H46.9152L46.9152 33.0847H49.6813V30.3186Z" fill="black"/>
<path d="M55.2135 30.3186H52.4474V33.0847H55.2135V30.3186Z" fill="black"/>
<path d="M57.9796 30.3186H55.2135V33.0847H57.9796V30.3186Z" fill="black"/>
<path d="M66.2779 30.3186H63.5118V33.0847H66.2779V30.3186Z" fill="black"/>
<path d="M69.044 30.3186H66.2779V33.0847H69.044V30.3186Z" fill="black"/>
<path d="M71.8101 30.3186H69.044V33.0847H71.8101V30.3186Z" fill="black"/>
<path d="M13.722 33.0847H10.9559V35.8508H13.722V33.0847Z" fill="black"/>
<path d="M16.4881 33.0847H13.722V35.8508H16.4881V33.0847Z" fill="black"/>
<path d="M22.0203 33.0847H19.2542V35.8508H22.0203V33.0847Z" fill="black"/>
<path d="M24.7864 33.0847H22.0203V35.8508H24.7864V33.0847Z" fill="black"/>
<path d="M38.6169 33.0847H35.8508V35.8508H38.6169V33.0847Z" fill="black"/>
<path d="M41.383 33.0847H38.6169V35.8508H41.383V33.0847Z" fill="black"/>
<path d="M46.9152 33.0847H44.1491V35.8508H46.9152L46.9152 33.0847Z" fill="black"/>
<path d="M49.6813 33.0847H46.9152L46.9152 35.8508H49.6813V33.0847Z" fill="black"/>
<path d="M69.044 33.0847H66.2779V35.8508H69.044V33.0847Z" fill="black"/>
<path d="M8.18981 35.8508H5.42371V38.6169H8.18981V35.8508Z" fill="black"/>
<path d="M19.2542 35.8508H16.4881V38.6169H19.2542V35.8508Z" fill="black"/>
<path d="M22.0203 35.8508H19.2542V38.6169H22.0203V35.8508Z" fill="black"/>
<path d="M30.3186 35.8508H27.5525V38.6169H30.3186V35.8508Z" fill="black"/>
<path d="M44.1491 35.8508H41.383V38.6169H44.1491V35.8508Z" fill="black"/>
<path d="M46.9152 35.8508H44.1491V38.6169H46.9152V35.8508Z" fill="black"/>
<path d="M49.6813 35.8508H46.9152V38.6169H49.6813V35.8508Z" fill="black"/>
<path d="M60.7457 35.8508H57.9796V38.6169H60.7457V35.8508Z" fill="black"/>
<path d="M71.8101 35.8508H69.044V38.6169H71.8101V35.8508Z" fill="black"/>
<path d="M74.5762 35.8508H71.8101V38.6169H74.5762V35.8508Z" fill="black"/>
<path d="M10.9559 38.6169H8.18981V41.383H10.9559V38.6169Z" fill="black"/>
<path d="M22.0203 38.6169H19.2542V41.383H22.0203V38.6169Z" fill="black"/>
<path d="M24.7864 38.6169H22.0203V41.383H24.7864V38.6169Z" fill="black"/>
<path d="M27.5525 38.6169H24.7864V41.383H27.5525V38.6169Z" fill="black"/>
<path d="M30.3186 38.6169H27.5525V41.383H30.3186V38.6169Z" fill="black"/>
<path d="M38.6169 38.6169H35.8508V41.383H38.6169V38.6169Z" fill="black"/>
<path d="M41.383 38.6169H38.6169V41.383H41.383V38.6169Z" fill="black"/>
<path d="M44.1491 38.6169H41.383V41.383H44.1491V38.6169Z" fill="black"/>
<path d="M52.4474 38.6169H49.6813V41.383H52.4474V38.6169Z" fill="black"/>
<path d="M71.8101 38.6169H69.044V41.383H71.8101V38.6169Z" fill="black"/>
<path d="M8.18981 41.383H5.42371V44.1491H8.18981V41.383Z" fill="black"/>
<path d="M10.9559 41.383H8.18981V44.1491H10.9559V41.383Z" fill="black"/>
<path d="M22.0203 41.383H19.2542V44.1491H22.0203V41.383Z" fill="black"/>
<path d="M30.3186 41.383H27.5525V44.1491H30.3186V41.383Z" fill="black"/>
<path d="M33.0847 41.383H30.3186V44.1491H33.0847V41.383Z" fill="black"/>
<path d="M35.8508 41.383H33.0847V44.1491H35.8508V41.383Z" fill="black"/>
<path d="M46.9152 41.383H44.1491V44.1491H46.9152V41.383Z" fill="black"/>
<path d="M57.9796 41.383H55.2135V44.1491H57.9796V41.383Z" fill="black"/>
<path d="M60.7457 41.383H57.9796V44.1491H60.7457V41.383Z" fill="black"/>
<path d="M63.5118 41.383H60.7457V44.1491H63.5118V41.383Z" fill="black"/>
<path d="M71.8101 41.383H69.044V44.1491H71.8101V41.383Z" fill="black"/>
<path d="M16.4881 44.1491H13.722V46.9152H16.4881V44.1491Z" fill="black"/>
<path d="M19.2542 44.1491H16.4881V46.9152H19.2542V44.1491Z" fill="black"/>
<path d="M24.7864 44.1491H22.0203L22.0203 46.9152H24.7864V44.1491Z" fill="black"/>
<path d="M33.0847 44.1491H30.3186V46.9152H33.0847V44.1491Z" fill="black"/>
<path d="M41.383 44.1491H38.6169V46.9152H41.383V44.1491Z" fill="black"/>
<path d="M44.1491 44.1491H41.383V46.9152H44.1491V44.1491Z" fill="black"/>
<path d="M49.6813 44.1491H46.9152L46.9152 46.9152H49.6813V44.1491Z" fill="black"/>
<path d="M52.4474 44.1491H49.6813V46.9152H52.4474V44.1491Z" fill="black"/>
<path d="M55.2135 44.1491H52.4474V46.9152H55.2135V44.1491Z" fill="black"/>
<path d="M57.9796 44.1491H55.2135V46.9152H57.9796V44.1491Z" fill="black"/>
<path d="M60.7457 44.1491H57.9796V46.9152H60.7457V44.1491Z" fill="black"/>
<path d="M63.5118 44.1491H60.7457V46.9152H63.5118V44.1491Z" fill="black"/>
<path d="M69.044 44.1491H66.2779V46.9152H69.044V44.1491Z" fill="black"/>
<path d="M71.8101 44.1491H69.044V46.9152H71.8101V44.1491Z" fill="black"/>
<path d="M8.18981 46.9152H5.42371V49.6813H8.18981V46.9152Z" fill="black"/>
<path d="M16.4881 46.9152H13.722V49.6813H16.4881V46.9152Z" fill="black"/>
<path d="M19.2542 46.9152H16.4881V49.6813H19.2542V46.9152Z" fill="black"/>
<path d="M38.6169 46.9152L35.8508 46.9152V49.6813H38.6169V46.9152Z" fill="black"/>
<path d="M55.2135 46.9152H52.4474V49.6813H55.2135V46.9152Z" fill="black"/>
<path d="M57.9796 46.9152H55.2135V49.6813H57.9796V46.9152Z" fill="black"/>
<path d="M60.7457 46.9152H57.9796V49.6813H60.7457V46.9152Z" fill="black"/>
<path d="M71.8101 46.9152H69.044V49.6813H71.8101V46.9152Z" fill="black"/>
<path d="M10.9559 49.6813H8.18981V52.4474H10.9559V49.6813Z" fill="black"/>
<path d="M13.722 49.6813H10.9559V52.4474H13.722V49.6813Z" fill="black"/>
<path d="M16.4881 49.6813H13.722V52.4474H16.4881V49.6813Z" fill="black"/>
<path d="M22.0203 49.6813H19.2542V52.4474H22.0203V49.6813Z" fill="black"/>
<path d="M24.7864 49.6813H22.0203V52.4474H24.7864V49.6813Z" fill="black"/>
<path d="M30.3186 49.6813H27.5525V52.4474H30.3186V49.6813Z" fill="black"/>
<path d="M35.8508 49.6813H33.0847V52.4474H35.8508V49.6813Z" fill="black"/>
<path d="M44.1491 49.6813H41.383V52.4474H44.1491V49.6813Z" fill="black"/>
<path d="M52.4474 49.6813H49.6813V52.4474H52.4474V49.6813Z" fill="black"/>
<path d="M55.2135 49.6813H52.4474V52.4474H55.2135V49.6813Z" fill="black"/>
<path d="M57.9796 49.6813H55.2135V52.4474H57.9796V49.6813Z" fill="black"/>
<path d="M60.7457 49.6813H57.9796V52.4474H60.7457V49.6813Z" fill="black"/>
<path d="M63.5118 49.6813H60.7457V52.4474H63.5118V49.6813Z" fill="black"/>
<path d="M66.2779 49.6813H63.5118V52.4474H66.2779V49.6813Z" fill="black"/>
<path d="M71.8101 49.6813H69.044V52.4474H71.8101V49.6813Z" fill="black"/>
<path d="M38.6169 52.4474H35.8508V55.2135H38.6169V52.4474Z" fill="black"/>
<path d="M41.383 52.4474H38.6169V55.2135H41.383V52.4474Z" fill="black"/>
<path d="M52.4474 52.4474H49.6813V55.2135H52.4474V52.4474Z" fill="black"/>
<path d="M63.5118 52.4474H60.7457V55.2135H63.5118V52.4474Z" fill="black"/>
<path d="M66.2779 52.4474H63.5118V55.2135H66.2779V52.4474Z" fill="black"/>
<path d="M69.044 52.4474H66.2779V55.2135H69.044V52.4474Z" fill="black"/>
<path d="M71.8101 52.4474H69.044V55.2135H71.8101V52.4474Z" fill="black"/>
<path d="M74.5762 52.4474H71.8101V55.2135H74.5762V52.4474Z" fill="black"/>
<path d="M8.18981 55.2135H5.42371V57.9796H8.18981V55.2135Z" fill="black"/>
<path d="M10.9559 55.2135H8.18981V57.9796H10.9559V55.2135Z" fill="black"/>
<path d="M13.722 55.2135H10.9559V57.9796H13.722V55.2135Z" fill="black"/>
<path d="M16.4881 55.2135H13.722V57.9796H16.4881V55.2135Z" fill="black"/>
<path d="M19.2542 55.2135H16.4881V57.9796H19.2542V55.2135Z" fill="black"/>
<path d="M22.0203 55.2135H19.2542V57.9796H22.0203V55.2135Z" fill="black"/>
<path d="M24.7864 55.2135H22.0203V57.9796H24.7864V55.2135Z" fill="black"/>
<path d="M30.3186 55.2135H27.5525V57.9796H30.3186V55.2135Z" fill="black"/>
<path d="M33.0847 55.2135H30.3186V57.9796H33.0847V55.2135Z" fill="black"/>
<path d="M38.6169 55.2135H35.8508V57.9796H38.6169V55.2135Z" fill="black"/>
<path d="M41.383 55.2135H38.6169V57.9796H41.383V55.2135Z" fill="black"/>
<path d="M52.4474 55.2135H49.6813V57.9796H52.4474V55.2135Z" fill="black"/>
<path d="M57.9796 55.2135H55.2135V57.9796H57.9796V55.2135Z" fill="black"/>
<path d="M63.5118 55.2135H60.7457V57.9796H63.5118V55.2135Z" fill="black"/>
<path d="M66.2779 55.2135H63.5118V57.9796H66.2779V55.2135Z" fill="black"/>
<path d="M74.5762 55.2135H71.8101V57.9796H74.5762V55.2135Z" fill="black"/>
<path d="M8.18981 57.9796H5.42371V60.7457H8.18981V57.9796Z" fill="black"/>
<path d="M24.7864 57.9796H22.0203L22.0203 60.7457H24.7864V57.9796Z" fill="black"/>
<path d="M33.0847 57.9796H30.3186V60.7457H33.0847V57.9796Z" fill="black"/>
<path d="M44.1491 57.9796H41.383V60.7457H44.1491V57.9796Z" fill="black"/>
<path d="M52.4474 57.9796H49.6813V60.7457H52.4474V57.9796Z" fill="black"/>
<path d="M63.5118 57.9796H60.7457V60.7457H63.5118V57.9796Z" fill="black"/>
<path d="M69.044 57.9796H66.2779V60.7457H69.044V57.9796Z" fill="black"/>
<path d="M71.8101 57.9796H69.044V60.7457H71.8101V57.9796Z" fill="black"/>
<path d="M8.18981 60.7457H5.42371V63.5118H8.18981V60.7457Z" fill="black"/>
<path d="M13.722 60.7457H10.9559V63.5118H13.722V60.7457Z" fill="black"/>
<path d="M16.4881 60.7457H13.722V63.5118H16.4881V60.7457Z" fill="black"/>
<path d="M19.2542 60.7457H16.4881V63.5118H19.2542V60.7457Z" fill="black"/>
<path d="M24.7864 60.7457H22.0203V63.5118H24.7864V60.7457Z" fill="black"/>
<path d="M38.6169 60.7457H35.8508V63.5118H38.6169V60.7457Z" fill="black"/>
<path d="M44.1491 60.7457H41.383V63.5118H44.1491V60.7457Z" fill="black"/>
<path d="M49.6813 60.7457H46.9152V63.5118H49.6813V60.7457Z" fill="black"/>
<path d="M52.4474 60.7457H49.6813V63.5118H52.4474V60.7457Z" fill="black"/>
<path d="M55.2135 60.7457H52.4474V63.5118H55.2135V60.7457Z" fill="black"/>
<path d="M57.9796 60.7457H55.2135V63.5118H57.9796V60.7457Z" fill="black"/>
<path d="M60.7457 60.7457H57.9796V63.5118H60.7457V60.7457Z" fill="black"/>
<path d="M63.5118 60.7457H60.7457V63.5118H63.5118V60.7457Z" fill="black"/>
<path d="M69.044 60.7457H66.2779V63.5118H69.044V60.7457Z" fill="black"/>
<path d="M8.18981 63.5118H5.42371V66.2779H8.18981V63.5118Z" fill="black"/>
<path d="M13.722 63.5118H10.9559V66.2779H13.722V63.5118Z" fill="black"/>
<path d="M16.4881 63.5118H13.722V66.2779H16.4881V63.5118Z" fill="black"/>
<path d="M19.2542 63.5118H16.4881V66.2779H19.2542V63.5118Z" fill="black"/>
<path d="M24.7864 63.5118H22.0203V66.2779H24.7864V63.5118Z" fill="black"/>
<path d="M30.3186 63.5118H27.5525V66.2779H30.3186V63.5118Z" fill="black"/>
<path d="M33.0847 63.5118H30.3186V66.2779H33.0847V63.5118Z" fill="black"/>
<path d="M35.8508 63.5118H33.0847V66.2779H35.8508V63.5118Z" fill="black"/>
<path d="M38.6169 63.5118H35.8508V66.2779H38.6169V63.5118Z" fill="black"/>
<path d="M41.383 63.5118H38.6169V66.2779H41.383V63.5118Z" fill="black"/>
<path d="M44.1491 63.5118H41.383V66.2779H44.1491V63.5118Z" fill="black"/>
<path d="M46.9152 63.5118H44.1491V66.2779H46.9152L46.9152 63.5118Z" fill="black"/>
<path d="M55.2135 63.5118H52.4474V66.2779H55.2135V63.5118Z" fill="black"/>
<path d="M57.9796 63.5118H55.2135V66.2779H57.9796V63.5118Z" fill="black"/>
<path d="M60.7457 63.5118H57.9796V66.2779H60.7457V63.5118Z" fill="black"/>
<path d="M69.044 63.5118H66.2779V66.2779H69.044V63.5118Z" fill="black"/>
<path d="M74.5762 63.5118H71.8101V66.2779H74.5762V63.5118Z" fill="black"/>
<path d="M8.18981 66.2779H5.42371V69.044H8.18981V66.2779Z" fill="black"/>
<path d="M13.722 66.2779H10.9559V69.044H13.722V66.2779Z" fill="black"/>
<path d="M16.4881 66.2779H13.722V69.044H16.4881V66.2779Z" fill="black"/>
<path d="M19.2542 66.2779H16.4881V69.044H19.2542V66.2779Z" fill="black"/>
<path d="M24.7864 66.2779H22.0203V69.044H24.7864V66.2779Z" fill="black"/>
<path d="M35.8508 66.2779H33.0847V69.044H35.8508V66.2779Z" fill="black"/>
<path d="M38.6169 66.2779H35.8508V69.044H38.6169V66.2779Z" fill="black"/>
<path d="M44.1491 66.2779H41.383V69.044H44.1491V66.2779Z" fill="black"/>
<path d="M55.2135 66.2779H52.4474V69.044H55.2135V66.2779Z" fill="black"/>
<path d="M63.5118 66.2779H60.7457V69.044H63.5118V66.2779Z" fill="black"/>
<path d="M71.8101 66.2779H69.044V69.044H71.8101V66.2779Z" fill="black"/>
<path d="M74.5762 66.2779H71.8101V69.044H74.5762V66.2779Z" fill="black"/>
<path d="M8.18981 69.044H5.42371V71.8101H8.18981V69.044Z" fill="black"/>
<path d="M24.7864 69.044H22.0203V71.8101H24.7864V69.044Z" fill="black"/>
<path d="M30.3186 69.044H27.5525V71.8101H30.3186V69.044Z" fill="black"/>
<path d="M46.9152 69.044H44.1491V71.8101H46.9152V69.044Z" fill="black"/>
<path d="M49.6813 69.044H46.9152V71.8101H49.6813V69.044Z" fill="black"/>
<path d="M52.4474 69.044H49.6813V71.8101H52.4474V69.044Z" fill="black"/>
<path d="M55.2135 69.044H52.4474V71.8101H55.2135V69.044Z" fill="black"/>
<path d="M57.9796 69.044H55.2135V71.8101H57.9796V69.044Z" fill="black"/>
<path d="M66.2779 69.044H63.5118V71.8101H66.2779V69.044Z" fill="black"/>
<path d="M69.044 69.044H66.2779V71.8101H69.044V69.044Z" fill="black"/>
<path d="M74.5762 69.044H71.8101V71.8101H74.5762V69.044Z" fill="black"/>
<path d="M8.18981 71.8101H5.42371V74.5762H8.18981V71.8101Z" fill="black"/>
<path d="M10.9559 71.8101H8.18981V74.5762H10.9559V71.8101Z" fill="black"/>
<path d="M13.722 71.8101H10.9559V74.5762H13.722V71.8101Z" fill="black"/>
<path d="M16.4881 71.8101H13.722V74.5762H16.4881V71.8101Z" fill="black"/>
<path d="M19.2542 71.8101H16.4881V74.5762H19.2542V71.8101Z" fill="black"/>
<path d="M22.0203 71.8101H19.2542V74.5762H22.0203L22.0203 71.8101Z" fill="black"/>
<path d="M24.7864 71.8101H22.0203L22.0203 74.5762H24.7864V71.8101Z" fill="black"/>
<path d="M30.3186 71.8101H27.5525V74.5762H30.3186V71.8101Z" fill="black"/>
<path d="M33.0847 71.8101H30.3186V74.5762H33.0847V71.8101Z" fill="black"/>
<path d="M38.6169 71.8101H35.8508V74.5762H38.6169V71.8101Z" fill="black"/>
<path d="M41.383 71.8101H38.6169V74.5762H41.383V71.8101Z" fill="black"/>
<path d="M49.6813 71.8101H46.9152L46.9152 74.5762H49.6813V71.8101Z" fill="black"/>
<path d="M57.9796 71.8101H55.2135V74.5762H57.9796V71.8101Z" fill="black"/>
<path d="M66.2779 71.8101H63.5118V74.5762H66.2779V71.8101Z" fill="black"/>
<path d="M74.5762 71.8101H71.8101V74.5762H74.5762V71.8101Z" fill="black"/>
<rect width="80" height="80" fill="white" fill-opacity="0.9"/>
<rect x="16" y="16" width="48" height="48" rx="24" fill="white"/>
<path d="M28 32H30.6667H52" stroke="#FF0000" stroke-width="2" stroke-linecap="round" stroke-linejoin="round"/>
<path d="M34.6666 32V29.3333C34.6666 28.626 34.9476 27.9478 35.4477 27.4477C35.9478 26.9476 36.626 26.6666 37.3333 26.6666H42.6666C43.3739 26.6666 44.0521 26.9476 44.5522 27.4477C45.0523 27.9478 45.3333 28.626 45.3333 29.3333V32M49.3333 32V50.6666C49.3333 51.3739 49.0523 52.0521 48.5522 52.5522C48.0521 53.0523 47.3739 53.3333 46.6666 53.3333H33.3333C32.626 53.3333 31.9478 53.0523 31.4477 52.5522C30.9476 52.0521 30.6666 51.3739 30.6666 50.6666V32H49.3333Z" stroke="#FF0000" stroke-width="2" stroke-linecap="round" stroke-linejoin="round"/>
<path d="M37.3334 38.6666V46.6666" stroke="#FF0000" stroke-width="2" stroke-linecap="round" stroke-linejoin="round"/>
<path d="M42.6666 38.6666V46.6666" stroke="#FF0000" stroke-width="2" stroke-linecap="round" stroke-linejoin="round"/>
</svg>
