<svg width="246" height="44" viewBox="0 0 246 44" fill="none" xmlns="http://www.w3.org/2000/svg">
<path d="M45.6211 0.285156L42.9258 43.293L29.5664 43.8789L29.6836 21.2031L23.6484 39.4844H18.4922L13.8633 23.1367L13.8047 42.1211L0.269531 42.5312L0.855469 2.04297L15.9141 1.45703L21.8906 20.8516L29.8594 0.285156H45.6211ZM81.8906 32.5703C81.8906 34.1914 81.5879 35.5879 80.9824 36.7598C80.3965 37.9316 79.6055 38.9277 78.6094 39.748C77.6133 40.5684 76.4609 41.2422 75.1523 41.7695C73.8633 42.2773 72.5156 42.6777 71.1094 42.9707C69.7031 43.2637 68.2871 43.459 66.8613 43.5566C65.4551 43.6543 64.1367 43.7031 62.9062 43.7031C61.6953 43.7031 60.4355 43.6543 59.127 43.5566C57.8379 43.4785 56.5488 43.332 55.2598 43.1172C53.9707 42.9023 52.7012 42.6191 51.4512 42.2676C50.2012 41.8965 49.0195 41.4375 47.9062 40.8906L47.8477 3.15625C48.9414 2.70703 50.1035 2.30664 51.334 1.95508C52.5645 1.58398 53.8145 1.28125 55.084 1.04688C56.373 0.792969 57.6523 0.607422 58.9219 0.490234C60.1914 0.353516 61.4219 0.285156 62.6133 0.285156C64 0.285156 65.3965 0.373047 66.8027 0.548828C68.2285 0.724609 69.5957 1.01758 70.9043 1.42773C72.2129 1.83789 73.4336 2.375 74.5664 3.03906C75.6992 3.68359 76.6855 4.48437 77.5254 5.44141C78.3848 6.39844 79.0488 7.51172 79.5176 8.78125C80.0059 10.0508 80.25 11.5156 80.25 13.1758C80.25 14.2695 80.0938 15.2949 79.7812 16.252C79.4688 17.209 79.0195 18.0684 78.4336 18.8301C77.8477 19.5918 77.1348 20.2461 76.2949 20.793C75.4551 21.3203 74.5078 21.7109 73.4531 21.9648C74.7227 22.2969 75.875 22.7852 76.9102 23.4297C77.9648 24.0742 78.8535 24.8555 79.5762 25.7734C80.3184 26.6914 80.8848 27.7266 81.2754 28.8789C81.6855 30.0312 81.8906 31.2617 81.8906 32.5703ZM67.0078 15.8711C67.0078 15.3047 66.8906 14.8262 66.6562 14.4355C66.4219 14.0254 66.1289 13.6934 65.7773 13.4395C65.4453 13.1855 65.0742 13 64.6641 12.8828C64.2734 12.7656 63.9219 12.707 63.6094 12.707C63.2188 12.707 62.8379 12.7656 62.4668 12.8828C62.0957 13 61.7344 13.1367 61.3828 13.293L61.207 19.7969C61.6562 19.7969 62.2129 19.7578 62.877 19.6797C63.541 19.6016 64.1758 19.4355 64.7812 19.1816C65.4062 18.9082 65.9336 18.5176 66.3633 18.0098C66.793 17.4824 67.0078 16.7695 67.0078 15.8711ZM62.8477 25.4219C62.2812 25.4219 61.7344 25.4805 61.207 25.5977L61.0898 32.2773C61.3828 32.3359 61.666 32.3945 61.9395 32.4531C62.2324 32.4922 62.5156 32.5117 62.7891 32.5117C63.1992 32.5117 63.6484 32.4727 64.1367 32.3945C64.625 32.2969 65.084 32.1211 65.5137 31.8672C65.9434 31.5938 66.2949 31.2324 66.5684 30.7832C66.8613 30.334 67.0078 29.7383 67.0078 28.9961C67.0078 28.2539 66.8613 27.6484 66.5684 27.1797C66.2949 26.7109 65.9531 26.3496 65.543 26.0957C65.1328 25.8223 64.6836 25.6465 64.1953 25.5684C63.707 25.4707 63.2578 25.4219 62.8477 25.4219Z" fill="#EBC733"/>
<path d="M108.913 43.48C106.321 43.48 104.017 42.936 102.001 41.848C100.017 40.728 98.4493 39.208 97.2973 37.288C96.1773 35.368 95.6173 33.16 95.6173 30.664C95.6173 28.68 95.9373 26.872 96.5773 25.24C97.2173 23.608 98.0973 22.2 99.2173 21.016C100.369 19.8 101.729 18.872 103.297 18.232C104.897 17.56 106.625 17.224 108.481 17.224C110.113 17.224 111.633 17.544 113.041 18.184C114.449 18.792 115.665 19.64 116.689 20.728C117.745 21.816 118.545 23.112 119.089 24.616C119.665 26.088 119.937 27.704 119.905 29.464L119.857 31.576H99.2653L98.1613 27.64H115.585L114.865 28.456V27.304C114.769 26.248 114.417 25.304 113.809 24.472C113.201 23.64 112.433 22.984 111.505 22.504C110.577 22.024 109.569 21.784 108.481 21.784C106.753 21.784 105.297 22.12 104.113 22.792C102.929 23.432 102.033 24.392 101.425 25.672C100.817 26.92 100.513 28.472 100.513 30.328C100.513 32.088 100.881 33.624 101.617 34.936C102.353 36.216 103.393 37.208 104.737 37.912C106.081 38.616 107.633 38.968 109.393 38.968C110.641 38.968 111.793 38.76 112.849 38.344C113.937 37.928 115.105 37.176 116.353 36.088L118.849 39.592C118.081 40.36 117.137 41.032 116.017 41.608C114.929 42.184 113.761 42.648 112.513 43C111.297 43.32 110.097 43.48 108.913 43.48ZM133.066 43L122.41 17.8H127.738L135.418 36.664L134.506 37.096L142.714 17.8H147.802L136.618 43H133.066ZM163.382 43.48C160.79 43.48 158.486 42.936 156.47 41.848C154.486 40.728 152.918 39.208 151.766 37.288C150.646 35.368 150.086 33.16 150.086 30.664C150.086 28.68 150.406 26.872 151.046 25.24C151.686 23.608 152.566 22.2 153.686 21.016C154.838 19.8 156.198 18.872 157.766 18.232C159.366 17.56 161.094 17.224 162.95 17.224C164.582 17.224 166.102 17.544 167.51 18.184C168.918 18.792 170.134 19.64 171.158 20.728C172.214 21.816 173.014 23.112 173.558 24.616C174.134 26.088 174.406 27.704 174.374 29.464L174.326 31.576H153.734L152.63 27.64H170.054L169.334 28.456V27.304C169.238 26.248 168.886 25.304 168.278 24.472C167.67 23.64 166.902 22.984 165.974 22.504C165.046 22.024 164.038 21.784 162.95 21.784C161.222 21.784 159.766 22.12 158.582 22.792C157.398 23.432 156.502 24.392 155.894 25.672C155.286 26.92 154.982 28.472 154.982 30.328C154.982 32.088 155.35 33.624 156.086 34.936C156.822 36.216 157.862 37.208 159.206 37.912C160.55 38.616 162.102 38.968 163.862 38.968C165.11 38.968 166.262 38.76 167.318 38.344C168.406 37.928 169.574 37.176 170.822 36.088L173.318 39.592C172.55 40.36 171.606 41.032 170.486 41.608C169.398 42.184 168.23 42.648 166.982 43C165.766 43.32 164.566 43.48 163.382 43.48ZM179.747 43V17.8H184.691V22.984L183.827 23.56C184.147 22.44 184.771 21.416 185.699 20.488C186.627 19.528 187.731 18.76 189.011 18.184C190.291 17.576 191.603 17.272 192.947 17.272C194.867 17.272 196.467 17.656 197.747 18.424C199.027 19.16 199.987 20.296 200.627 21.832C201.267 23.368 201.587 25.304 201.587 27.64V43H196.643V27.976C196.643 26.536 196.451 25.352 196.067 24.424C195.683 23.464 195.091 22.776 194.291 22.36C193.491 21.912 192.499 21.72 191.315 21.784C190.355 21.784 189.475 21.944 188.675 22.264C187.875 22.552 187.171 22.968 186.563 23.512C185.987 24.056 185.523 24.696 185.171 25.432C184.851 26.136 184.691 26.904 184.691 27.736V43H182.243C181.827 43 181.411 43 180.995 43C180.579 43 180.163 43 179.747 43ZM211.414 43V11.368H216.358V43H211.414ZM206.182 22.6V17.8H222.214V22.6H206.182ZM236.053 43.48C233.941 43.48 232.037 43.112 230.341 42.376C228.645 41.64 227.237 40.552 226.117 39.112L229.477 36.232C230.437 37.352 231.477 38.168 232.597 38.68C233.749 39.16 235.045 39.4 236.485 39.4C237.061 39.4 237.589 39.336 238.069 39.208C238.581 39.048 239.013 38.824 239.365 38.536C239.749 38.248 240.037 37.912 240.229 37.528C240.421 37.112 240.517 36.664 240.517 36.184C240.517 35.352 240.213 34.68 239.605 34.168C239.285 33.944 238.773 33.704 238.069 33.448C237.397 33.16 236.517 32.872 235.429 32.584C233.573 32.104 232.053 31.56 230.869 30.952C229.685 30.344 228.773 29.656 228.133 28.888C227.653 28.28 227.301 27.624 227.077 26.92C226.853 26.184 226.741 25.384 226.741 24.52C226.741 23.464 226.965 22.504 227.413 21.64C227.893 20.744 228.533 19.976 229.333 19.336C230.165 18.664 231.125 18.152 232.213 17.8C233.333 17.448 234.517 17.272 235.765 17.272C236.949 17.272 238.117 17.432 239.269 17.752C240.453 18.072 241.541 18.536 242.533 19.144C243.525 19.752 244.357 20.472 245.029 21.304L242.197 24.424C241.589 23.816 240.917 23.288 240.181 22.84C239.477 22.36 238.757 21.992 238.021 21.736C237.285 21.48 236.613 21.352 236.005 21.352C235.333 21.352 234.725 21.416 234.181 21.544C233.637 21.672 233.173 21.864 232.789 22.12C232.437 22.376 232.165 22.696 231.973 23.08C231.781 23.464 231.685 23.896 231.685 24.376C231.717 24.792 231.813 25.192 231.973 25.576C232.165 25.928 232.421 26.232 232.741 26.488C233.093 26.744 233.621 27.016 234.325 27.304C235.029 27.592 235.925 27.864 237.013 28.12C238.613 28.536 239.925 29 240.949 29.512C242.005 29.992 242.837 30.552 243.445 31.192C244.085 31.8 244.533 32.504 244.789 33.304C245.045 34.104 245.173 35 245.173 35.992C245.173 37.432 244.757 38.728 243.925 39.88C243.125 41 242.037 41.88 240.661 42.52C239.285 43.16 237.749 43.48 236.053 43.48Z" fill="white"/>
</svg>
