<svg width="327" height="126" viewBox="0 0 327 126" fill="none" xmlns="http://www.w3.org/2000/svg">
<g filter="url(#filter0_d_29_208)">
<mask id="path-1-inside-1_29_208" fill="white">
<path fill-rule="evenodd" clip-rule="evenodd" d="M231 3C228.791 3 227.054 4.82175 226.482 6.95565C224.758 13.3923 218.927 18.1282 212 18.1282C205.073 18.1282 199.242 13.3923 197.518 6.95565C196.946 4.82175 195.209 3 193 3H4C1.79086 3 0 4.79086 0 7V117C0 119.209 1.79086 121 4 121L193 121C195.209 121 196.946 119.178 197.518 117.044C199.242 110.608 205.073 105.872 212 105.872C218.927 105.872 224.758 110.608 226.482 117.044C227.054 119.178 228.791 121 231 121L323 121C325.209 121 327 119.209 327 117V7C327 4.79086 325.209 3 323 3H231ZM211 24.5C211 23.6716 211.672 23 212.5 23C213.328 23 214 23.6716 214 24.5V29.5C214 30.3284 213.328 31 212.5 31C211.672 31 211 30.3284 211 29.5V24.5ZM212.5 65C211.672 65 211 65.6716 211 66.5V71.5C211 72.3284 211.672 73 212.5 73C213.328 73 214 72.3284 214 71.5V66.5C214 65.6716 213.328 65 212.5 65ZM211 52.5C211 51.6716 211.672 51 212.5 51C213.328 51 214 51.6716 214 52.5V57.5C214 58.3284 213.328 59 212.5 59C211.672 59 211 58.3284 211 57.5V52.5ZM212.5 37C211.672 37 211 37.6716 211 38.5V43.5C211 44.3284 211.672 45 212.5 45C213.328 45 214 44.3284 214 43.5V38.5C214 37.6716 213.328 37 212.5 37ZM211 80.5C211 79.6716 211.672 79 212.5 79C213.328 79 214 79.6716 214 80.5V85.5C214 86.3284 213.328 87 212.5 87C211.672 87 211 86.3284 211 85.5V80.5ZM212.5 93C211.672 93 211 93.6716 211 94.5V99.5C211 100.328 211.672 101 212.5 101C213.328 101 214 100.328 214 99.5V94.5C214 93.6716 213.328 93 212.5 93Z"/>
</mask>
<path fill-rule="evenodd" clip-rule="evenodd" d="M231 3C228.791 3 227.054 4.82175 226.482 6.95565C224.758 13.3923 218.927 18.1282 212 18.1282C205.073 18.1282 199.242 13.3923 197.518 6.95565C196.946 4.82175 195.209 3 193 3H4C1.79086 3 0 4.79086 0 7V117C0 119.209 1.79086 121 4 121L193 121C195.209 121 196.946 119.178 197.518 117.044C199.242 110.608 205.073 105.872 212 105.872C218.927 105.872 224.758 110.608 226.482 117.044C227.054 119.178 228.791 121 231 121L323 121C325.209 121 327 119.209 327 117V7C327 4.79086 325.209 3 323 3H231ZM211 24.5C211 23.6716 211.672 23 212.5 23C213.328 23 214 23.6716 214 24.5V29.5C214 30.3284 213.328 31 212.5 31C211.672 31 211 30.3284 211 29.5V24.5ZM212.5 65C211.672 65 211 65.6716 211 66.5V71.5C211 72.3284 211.672 73 212.5 73C213.328 73 214 72.3284 214 71.5V66.5C214 65.6716 213.328 65 212.5 65ZM211 52.5C211 51.6716 211.672 51 212.5 51C213.328 51 214 51.6716 214 52.5V57.5C214 58.3284 213.328 59 212.5 59C211.672 59 211 58.3284 211 57.5V52.5ZM212.5 37C211.672 37 211 37.6716 211 38.5V43.5C211 44.3284 211.672 45 212.5 45C213.328 45 214 44.3284 214 43.5V38.5C214 37.6716 213.328 37 212.5 37ZM211 80.5C211 79.6716 211.672 79 212.5 79C213.328 79 214 79.6716 214 80.5V85.5C214 86.3284 213.328 87 212.5 87C211.672 87 211 86.3284 211 85.5V80.5ZM212.5 93C211.672 93 211 93.6716 211 94.5V99.5C211 100.328 211.672 101 212.5 101C213.328 101 214 100.328 214 99.5V94.5C214 93.6716 213.328 93 212.5 93Z" fill="white"/>
<path d="M226.482 6.95565L225.516 6.69689V6.6969L226.482 6.95565ZM197.518 6.95565L198.484 6.69689V6.69689L197.518 6.95565ZM4 121V122H4L4 121ZM193 121V120V121ZM197.518 117.044L198.484 117.303L197.518 117.044ZM226.482 117.044L227.448 116.786L226.482 117.044ZM231 121V120V121ZM323 121V122V121ZM227.448 7.21442C227.944 5.36111 229.387 4 231 4V2C228.194 2 226.163 4.2824 225.516 6.69689L227.448 7.21442ZM212 19.1282C219.396 19.1282 225.611 14.0721 227.448 7.21441L225.516 6.6969C223.905 12.7124 218.458 17.1282 212 17.1282V19.1282ZM196.552 7.21441C198.389 14.0721 204.604 19.1282 212 19.1282V17.1282C205.542 17.1282 200.095 12.7124 198.484 6.69689L196.552 7.21441ZM193 4C194.613 4 196.056 5.36111 196.552 7.21441L198.484 6.69689C197.837 4.2824 195.806 2 193 2V4ZM4 4H193V2H4V4ZM1 7C1 5.34314 2.34315 4 4 4V2C1.23858 2 -1 4.23857 -1 7H1ZM1 117V7H-1V117H1ZM4 120C2.34314 120 1 118.657 1 117H-1C-1 119.761 1.23857 122 4 122V120ZM193 120L4 120L4 122L193 122V120ZM196.552 116.786C196.056 118.639 194.613 120 193 120V122C195.806 122 197.837 119.718 198.484 117.303L196.552 116.786ZM212 104.872C204.604 104.872 198.389 109.928 196.552 116.786L198.484 117.303C200.095 111.288 205.542 106.872 212 106.872V104.872ZM227.448 116.786C225.611 109.928 219.396 104.872 212 104.872V106.872C218.458 106.872 223.905 111.288 225.516 117.303L227.448 116.786ZM231 120C229.387 120 227.944 118.639 227.448 116.786L225.516 117.303C226.163 119.718 228.194 122 231 122V120ZM323 120L231 120V122L323 122V120ZM326 117C326 118.657 324.657 120 323 120V122C325.761 122 328 119.761 328 117H326ZM326 7V117H328V7H326ZM323 4C324.657 4 326 5.34315 326 7H328C328 4.23858 325.761 2 323 2V4ZM231 4H323V2H231V4ZM212.5 22C211.119 22 210 23.1193 210 24.5H212C212 24.2239 212.224 24 212.5 24V22ZM215 24.5C215 23.1193 213.881 22 212.5 22V24C212.776 24 213 24.2239 213 24.5H215ZM215 29.5V24.5H213V29.5H215ZM212.5 32C213.881 32 215 30.8807 215 29.5H213C213 29.7761 212.776 30 212.5 30V32ZM210 29.5C210 30.8807 211.119 32 212.5 32V30C212.224 30 212 29.7761 212 29.5H210ZM210 24.5V29.5H212V24.5H210ZM212 66.5C212 66.2239 212.224 66 212.5 66V64C211.119 64 210 65.1193 210 66.5H212ZM212 71.5V66.5H210V71.5H212ZM212.5 72C212.224 72 212 71.7761 212 71.5H210C210 72.8807 211.119 74 212.5 74V72ZM213 71.5C213 71.7761 212.776 72 212.5 72V74C213.881 74 215 72.8807 215 71.5H213ZM213 66.5V71.5H215V66.5H213ZM212.5 66C212.776 66 213 66.2239 213 66.5H215C215 65.1193 213.881 64 212.5 64V66ZM212.5 50C211.119 50 210 51.1193 210 52.5H212C212 52.2239 212.224 52 212.5 52V50ZM215 52.5C215 51.1193 213.881 50 212.5 50V52C212.776 52 213 52.2239 213 52.5H215ZM215 57.5V52.5H213V57.5H215ZM212.5 60C213.881 60 215 58.8807 215 57.5H213C213 57.7761 212.776 58 212.5 58V60ZM210 57.5C210 58.8807 211.119 60 212.5 60V58C212.224 58 212 57.7761 212 57.5H210ZM210 52.5V57.5H212V52.5H210ZM212 38.5C212 38.2239 212.224 38 212.5 38V36C211.119 36 210 37.1193 210 38.5H212ZM212 43.5V38.5H210V43.5H212ZM212.5 44C212.224 44 212 43.7761 212 43.5H210C210 44.8807 211.119 46 212.5 46V44ZM213 43.5C213 43.7761 212.776 44 212.5 44V46C213.881 46 215 44.8807 215 43.5H213ZM213 38.5V43.5H215V38.5H213ZM212.5 38C212.776 38 213 38.2239 213 38.5H215C215 37.1193 213.881 36 212.5 36V38ZM212.5 78C211.119 78 210 79.1193 210 80.5H212C212 80.2239 212.224 80 212.5 80V78ZM215 80.5C215 79.1193 213.881 78 212.5 78V80C212.776 80 213 80.2239 213 80.5H215ZM215 85.5V80.5H213V85.5H215ZM212.5 88C213.881 88 215 86.8807 215 85.5H213C213 85.7761 212.776 86 212.5 86V88ZM210 85.5C210 86.8807 211.119 88 212.5 88V86C212.224 86 212 85.7761 212 85.5H210ZM210 80.5V85.5H212V80.5H210ZM212 94.5C212 94.2239 212.224 94 212.5 94V92C211.119 92 210 93.1193 210 94.5H212ZM212 99.5V94.5H210V99.5H212ZM212.5 100C212.224 100 212 99.7761 212 99.5H210C210 100.881 211.119 102 212.5 102V100ZM213 99.5C213 99.7761 212.776 100 212.5 100V102C213.881 102 215 100.881 215 99.5H213ZM213 94.5V99.5H215V94.5H213ZM212.5 94C212.776 94 213 94.2239 213 94.5H215C215 93.1193 213.881 92 212.5 92V94Z" fill="#C8A92B" mask="url(#path-1-inside-1_29_208)"/>
</g>
<defs>
<filter id="filter0_d_29_208" x="-3" y="0" width="335" height="126" filterUnits="userSpaceOnUse" color-interpolation-filters="sRGB">
<feFlood flood-opacity="0" result="BackgroundImageFix"/>
<feColorMatrix in="SourceAlpha" type="matrix" values="0 0 0 0 0 0 0 0 0 0 0 0 0 0 0 0 0 0 127 0" result="hardAlpha"/>
<feOffset dx="1" dy="1"/>
<feGaussianBlur stdDeviation="2"/>
<feComposite in2="hardAlpha" operator="out"/>
<feColorMatrix type="matrix" values="0 0 0 0 0 0 0 0 0 0 0 0 0 0 0 0 0 0 0.1 0"/>
<feBlend mode="normal" in2="BackgroundImageFix" result="effect1_dropShadow_29_208"/>
<feBlend mode="normal" in="SourceGraphic" in2="effect1_dropShadow_29_208" result="shape"/>
</filter>
</defs>
</svg>
