<svg width="32" height="32" viewBox="0 0 32 32" fill="none" xmlns="http://www.w3.org/2000/svg">
<path d="M1.34418 20.9953C1.34416 20.9951 1.34415 20.9949 1.34413 20.9946L0.581918 21.044C0.581926 21.0441 0.581934 21.0442 0.581942 21.0443M1.34418 20.9953C1.34419 20.9956 1.34421 20.9959 1.34423 20.9962L0.581942 21.0443M1.34418 20.9953C1.34996 21.0842 1.36208 21.1597 1.37628 21.2183C1.38317 21.2468 1.39002 21.2691 1.39584 21.2854C1.40402 21.296 1.41528 21.3104 1.43023 21.3288C1.48542 21.3968 1.56461 21.4889 1.66493 21.6012C1.84763 21.8058 2.08136 22.0559 2.32537 22.3092M1.34418 20.9953L2.32537 22.3092M0.581942 21.0443C0.587334 21.1256 0.600319 21.211 0.62343 21.2999C0.656699 21.4279 0.705757 21.5426 0.760633 21.6443C0.761222 21.6454 0.761812 21.6465 0.762403 21.6476C0.805039 21.7262 0.851107 21.797 0.895962 21.8601C1.08605 22.1274 1.39481 22.4435 1.79858 22.8413L0.581942 21.0443ZM2.32537 22.3092L2.50302 22.1315L2.32668 22.3105" fill="#C8A92B" stroke="#C8A92B" stroke-width="2"/>
<path d="M18.9056 7.05615C18.9055 7.05611 18.9065 7.05756 18.9089 7.06062C18.9068 7.05772 18.9056 7.05619 18.9056 7.05615Z" fill="#C8A92B" stroke="#C8A92B" stroke-width="2"/>
<path d="M21.5383 9.68593C21.5357 9.6821 21.5341 9.68007 21.534 9.68002C21.5339 9.67996 21.5352 9.68188 21.5383 9.68593ZM22.3326 10.486C22.3326 10.486 22.3309 10.4847 22.3276 10.4824C22.331 10.485 22.3326 10.4861 22.3326 10.486Z" fill="#C8A92B" stroke="#C8A92B" stroke-width="2"/>
<path d="M24.1694 12.3156C24.1693 12.3155 24.1706 12.3175 24.1737 12.3216C24.1711 12.3177 24.1695 12.3156 24.1694 12.3156ZM24.9678 13.1215C24.9678 13.1214 24.9661 13.1201 24.9629 13.1178C24.9663 13.1204 24.9679 13.1215 24.9678 13.1215Z" fill="#C8A92B" stroke="#C8A92B" stroke-width="2"/>
</svg>
