<svg width="327" height="126" viewBox="0 0 327 126" fill="none" xmlns="http://www.w3.org/2000/svg">
<g filter="url(#filter0_d_29_936)">
<path fill-rule="evenodd" clip-rule="evenodd" d="M231 3C228.791 3 227.054 4.82175 226.482 6.95565C224.758 13.3923 218.927 18.1282 212 18.1282C205.073 18.1282 199.242 13.3923 197.518 6.95565C196.946 4.82175 195.209 3 193 3H4C1.79086 3 0 4.79086 0 7V117C0 119.209 1.79086 121 4 121L193 121C195.209 121 196.946 119.178 197.518 117.044C199.242 110.608 205.073 105.872 212 105.872C218.927 105.872 224.758 110.608 226.482 117.044C227.054 119.178 228.791 121 231 121L323 121C325.209 121 327 119.209 327 117V7C327 4.79086 325.209 3 323 3H231ZM211 24.5C211 23.6716 211.672 23 212.5 23C213.328 23 214 23.6716 214 24.5V29.5C214 30.3284 213.328 31 212.5 31C211.672 31 211 30.3284 211 29.5V24.5ZM212.5 65C211.672 65 211 65.6716 211 66.5V71.5C211 72.3284 211.672 73 212.5 73C213.328 73 214 72.3284 214 71.5V66.5C214 65.6716 213.328 65 212.5 65ZM211 52.5C211 51.6716 211.672 51 212.5 51C213.328 51 214 51.6716 214 52.5V57.5C214 58.3284 213.328 59 212.5 59C211.672 59 211 58.3284 211 57.5V52.5ZM212.5 37C211.672 37 211 37.6716 211 38.5V43.5C211 44.3284 211.672 45 212.5 45C213.328 45 214 44.3284 214 43.5V38.5C214 37.6716 213.328 37 212.5 37ZM211 80.5C211 79.6716 211.672 79 212.5 79C213.328 79 214 79.6716 214 80.5V85.5C214 86.3284 213.328 87 212.5 87C211.672 87 211 86.3284 211 85.5V80.5ZM212.5 93C211.672 93 211 93.6716 211 94.5V99.5C211 100.328 211.672 101 212.5 101C213.328 101 214 100.328 214 99.5V94.5C214 93.6716 213.328 93 212.5 93Z" fill="white"/>
</g>
<defs>
<filter id="filter0_d_29_936" x="-3" y="0" width="335" height="126" filterUnits="userSpaceOnUse" color-interpolation-filters="sRGB">
<feFlood flood-opacity="0" result="BackgroundImageFix"/>
<feColorMatrix in="SourceAlpha" type="matrix" values="0 0 0 0 0 0 0 0 0 0 0 0 0 0 0 0 0 0 127 0" result="hardAlpha"/>
<feOffset dx="1" dy="1"/>
<feGaussianBlur stdDeviation="2"/>
<feComposite in2="hardAlpha" operator="out"/>
<feColorMatrix type="matrix" values="0 0 0 0 0 0 0 0 0 0 0 0 0 0 0 0 0 0 0.1 0"/>
<feBlend mode="normal" in2="BackgroundImageFix" result="effect1_dropShadow_29_936"/>
<feBlend mode="normal" in="SourceGraphic" in2="effect1_dropShadow_29_936" result="shape"/>
</filter>
</defs>
</svg>
